# xmcd
#
# Track frame offsets: 
#        150
#        18910
#        35150
#        59572
#        75392
#        93242
#        113612
#        147360
#        163820
#        188672
#        220592
#
# Disc length: 4440 seconds
#
# Revision: 1
# Processed by: cddbd v1.5.2PL0 Copyright (c) Steve Scherf et al.
# Submitted via: ExactAudioCopy v0.95b3
#
DISCID=8c11560b
DTITLE=Royksopp - Melody A.M. [CD1] [TOCP-66195-96]
DYEAR=2001
DGENRE=Electronic
TTITLE0=So Easy
TTITLE1=Eple
TTITLE2=Sparks
TTITLE3=In Space
TTITLE4=Poor Leno
TTITLE5=A Higher Place
TTITLE6=Royksopp's Night Out
TTITLE7=Remind Me
TTITLE8=She's So
TTITLE9=40 Years Back , Come
TTITLE10=CCCD
EXTD=
EXTT0=
EXTT1=
EXTT2=
EXTT3=
EXTT4=
EXTT5=
EXTT6=
EXTT7=
EXTT8=
EXTT9=
EXTT10=
PLAYORDER=
